<svg width="148" height="140" viewBox="0 0 148 140" fill="none" xmlns="http://www.w3.org/2000/svg">
<g id="Group 23">
<g id="Group 14">
<circle id="Ellipse 2" cx="87.9699" cy="79.5751" r="59.8581" fill="#00BC70"/>
<path id="Vector 26" d="M1.81738 36.0491C8.44958 37.4372 14.7239 39.9081 21.2296 41.7518C36.5621 46.0969 54.7222 48.0655 69.0401 39.3612C72.9146 37.0058 80.5944 28.5275 74.4548 24.0676C71.238 21.7309 65.6121 23.3589 63.1646 26.0261C59.0704 30.4877 58.7079 37.8479 60.3132 43.3934C62.6718 51.5412 70.9782 54.0152 78.7174 53.6756C107.83 52.3981 124.257 24.9299 135.053 1.31445" stroke="#002F0C" stroke-width="2.09909" stroke-linecap="round"/>
<path id="Vector 27" d="M39.5718 68.8776C41.8892 66.7616 46.6375 66.2743 49.5882 66.4944C53.7563 66.8052 57.1626 68.9371 60.3991 71.3644" stroke="#002F0C" stroke-width="2.09909" stroke-linecap="round"/>
<path id="Vector 28" d="M123.192 55.511C117.793 55.511 112.428 56.0362 108.012 59.5694C106.076 61.118 102.564 63.617 101.743 66.0801" stroke="#002F0C" stroke-width="2.09909" stroke-linecap="round"/>
<path id="Vector 29" d="M80.6047 71.9861C79.3187 74.3009 78.6232 76.9238 77.5479 79.343C77.0318 80.5043 77.0666 81.3075 78.0488 82.2616C80.2521 84.402 82.0796 84.7311 84.9567 84.7311" stroke="#002F0C" stroke-width="2.09909" stroke-linecap="round"/>
<circle id="Ellipse 9" cx="124.877" cy="77.6996" r="12.41" fill="#00AB5F"/>
<circle id="Ellipse 10" cx="44.1083" cy="90.1097" r="12.41" fill="#00AB5F"/>
<path id="Vector 30" d="M45.7891 90.6375C46.4056 91.391 47.9438 91.6414 48.794 91.881C51.2534 92.574 53.7681 93.0337 56.2891 93.4352C61.5301 94.2701 66.8373 94.6532 72.1427 94.6787C81.3818 94.7231 90.4071 93.6491 98.9453 89.8777C106.587 86.5023 113.578 81.3604 119.807 75.8547C122.503 73.4722 124.885 70.9373 126.301 67.6343" stroke="#002F0C" stroke-width="2.09909" stroke-linecap="round"/>
<path id="Vector 31" d="M64.9985 94.4533C65.4819 100.093 68.9665 105.99 72.7567 110.004C78.4662 116.051 86.0585 117.525 93.3772 113.185C101.689 108.256 105.578 97.7298 108.23 88.9409C108.8 87.0529 109.404 85.386 109.404 83.4285" stroke="#002F0C" stroke-width="2.09909" stroke-linecap="round"/>
</g>
<path id="Vector 86" d="M89.291 122.584C87.2795 123.203 85.8637 127.896 88.7008 127.896" stroke="black" stroke-width="1.366" stroke-linecap="round"/>
</g>
</svg>
