<svg width="256" height="227" viewBox="0 0 256 227" fill="none" xmlns="http://www.w3.org/2000/svg">
<g id="Group 21">
<circle id="Ellipse 7" cx="131.416" cy="115.79" r="111.064" fill="#007DBD"/>
<circle id="Ellipse 11" cx="196.812" cy="133.632" r="25.8183" fill="#118ECE"/>
<circle id="Ellipse 12" cx="54.2462" cy="138.301" r="25.8183" fill="#118ECE"/>
<path id="Vector 67" d="M80.5304 110.289C80.1888 113.705 80.0274 103.433 80.0716 99.9998C80.2141 88.9405 80.2819 77.8554 80.8253 66.8063C80.9743 63.7762 81.0723 61.4979 83.0862 59.2043C83.8456 58.3394 86.1535 55.6963 87.5426 55.8948C90.2602 56.283 91.6629 66.6128 91.8024 67.2323C95.3009 82.774 97.1493 98.5973 98.8146 114.417" stroke="black" stroke-width="4.61" stroke-linecap="round"/>
<path id="Vector 68" d="M139.512 102.031C139.512 104.884 138.861 96.3597 138.693 93.5118C137.97 81.2841 138.842 68.7075 141.937 56.8122C142.424 54.9373 142.943 51.2889 144.82 51.766C150.307 53.1601 153.162 73.9814 153.569 75.8501C156.572 89.6404 158.863 103.589 161.925 117.366" stroke="black" stroke-width="4.61" stroke-linecap="round"/>
<path id="Vector 69" d="M108.706 145.115C112.579 158.34 116.284 171.971 122.162 184.477C124.588 189.638 129.599 196.681 134.689 189.697C139.95 182.478 139.188 171.531 139.291 163.133C139.392 154.809 139.329 146.481 139.329 138.156" stroke="black" stroke-width="4.61" stroke-linecap="round"/>
<path id="Vector 70" d="M188.112 139.153C189.083 139.153 192.542 130.128 192.752 129.718C195.564 124.25 199.071 119.669 202.728 114.793" stroke="black" stroke-width="4.61" stroke-linecap="round"/>
<path id="Vector 71" d="M190.2 144.72C190.2 147.48 192.947 142.668 193.023 142.555C196.658 137.136 199.925 131.427 203.424 125.929" stroke="black" stroke-width="4.61" stroke-linecap="round"/>
<path id="Vector 72" d="M41.1508 132.588C47.4254 133.932 53.6682 135.419 59.9422 136.764" stroke="black" stroke-width="4.61" stroke-linecap="round"/>
<path id="Vector 73" d="M39.7588 140.243C46.0839 141.192 52.1723 143.015 58.5502 143.723" stroke="black" stroke-width="4.61" stroke-linecap="round"/>
<path id="Vector 75" d="M198.64 3.0188C202.729 3.63216 204.928 7.77 206.507 11.216C209.87 18.5532 211.647 28.0303 205.644 34.5132C203.663 36.6527 199.582 39.814 196.356 39.1828C192.56 38.4402 191.619 32.2605 192.651 29.2346C195.078 22.1134 200.842 28.7397 202.548 32.2546C206.889 41.1991 209.025 51.0548 213.511 59.9676C216.881 66.662 221.749 73.2935 228.688 76.6158C232.054 78.2275 235.958 79.0102 239.676 78.9252C245.077 78.8018 248.155 76.3802 253 74.7378" stroke="black" stroke-width="4.61" stroke-linecap="round"/>
<path id="Vector 76" d="M57.045 3.0188C52.9559 3.63216 50.7572 7.77 49.1778 11.216C45.8149 18.5532 44.0379 28.0303 50.0406 34.5132C52.0216 36.6527 56.1032 39.814 59.3291 39.1828C63.1246 38.4402 64.0659 32.2605 63.0343 29.2346C60.6066 22.1134 54.8427 28.7397 53.1368 32.2546C48.7956 41.1991 46.6599 51.0548 42.1734 59.9676C38.8036 66.662 33.9358 73.2935 26.9971 76.6158C23.6311 78.2275 19.7272 79.0102 16.0084 78.9252C10.6073 78.8018 7.52976 76.3802 2.68476 74.7378" stroke="black" stroke-width="4.61" stroke-linecap="round"/>
</g>
</svg>
