<svg width="255" height="276" viewBox="0 0 255 276" fill="none" xmlns="http://www.w3.org/2000/svg">
<circle cx="127.832" cy="148.278" r="127.115" fill="#FFD446"/>
<path d="M42.3096 80.4638C42.4534 99.2754 42.6217 118.462 47.4304 136.592C48.6959 141.363 51.2008 153.654 55.7961 156.302C61.8308 159.781 68.7917 144.906 70.1952 140.516C74.5297 126.961 73.2676 110.618 73.5669 96.3688C73.727 88.7466 73.795 81.131 73.795 73.5072" stroke="black" stroke-width="4.61" stroke-linecap="round"/>
<path d="M134.028 68.1561C133.017 89.0593 133.923 110.474 138.591 130.765C140.268 138.056 142.295 147.75 148.376 151.873C154.946 156.327 161.845 153.206 165.006 145.511C171.223 130.379 170.294 110.621 169.975 94.2582C169.812 85.9095 169.62 77.5778 169.62 69.2264" stroke="black" stroke-width="4.61" stroke-linecap="round"/>
<path d="M104.355 92.765C104.355 115.132 103.082 137.54 104.588 159.895C104.936 165.058 106.328 170.133 106.856 175.278C106.965 176.346 106.35 181.365 107.611 182.132C108.896 182.913 123.579 179.886 123.719 180.457C124.801 184.885 125.289 189.712 125.289 194.202" stroke="black" stroke-width="4.61" stroke-linecap="round"/>
<path d="M86.4186 209.559C87.4863 206.925 88.9789 204.244 91.0715 201.994C93.2946 199.604 98.3791 196.342 100.137 201.439C102.224 207.487 99.1831 212.815 97.4192 218.39C96.9888 219.75 100.134 216.488 101.392 215.468C104.207 213.183 114.877 203.027 117.782 212.328C118.893 215.886 117.73 221.264 116.196 224.643C115.321 226.57 113.938 227.323 114.039 224.619C114.161 221.398 116.032 217.069 117.342 214.311C119.33 210.127 122.17 203.64 127.337 200.815C132.688 197.889 130.698 211.403 130.599 211.841C130.177 213.717 130.01 217.448 127.418 216.966C126.584 216.811 126.61 215.766 126.694 215.155C127.174 211.647 129.813 208.594 132.681 205.987C134.759 204.099 139.75 199.965 144.169 199.901C148.977 199.833 148.65 204.47 148.546 206.212C148.3 210.298 146.622 213.627 144.065 217.096C142.827 218.776 141.416 221.74 138.767 221.275C134.052 220.447 143.165 207.153 144.011 206.239" stroke="black" stroke-width="4.61" stroke-linecap="round"/>
<path d="M116.114 244.908C117.772 242.638 121.75 236.135 124.873 239.258" stroke="black" stroke-width="4.61" stroke-linecap="round"/>
<path d="M69.7411 2.6853C68.402 15.4067 59.2323 41.4853 76.9476 47.0669C90.0498 51.195 101.991 40.7785 104.06 28.2157C104.963 22.7327 100.732 22.7079 97.183 25.0738C94.0072 27.191 93.1166 31.2526 92.6349 34.785C91.8132 40.8109 93.2511 47.7889 98.5671 51.549C103.826 55.2688 111.694 53.2003 117.572 52.5816C118.502 52.4838 119.471 52.4173 120.362 52.1202" stroke="black" stroke-width="4.61" stroke-linecap="round"/>
<path d="M163.624 175.037C159.149 175.037 163.605 183.659 165.326 178.016C165.999 175.812 164.059 175.516 162.187 175.516" stroke="black" stroke-width="3" stroke-linecap="round"/>
</svg>
