<svg width="164" height="163" viewBox="0 0 164 163" fill="none" xmlns="http://www.w3.org/2000/svg">
<g id="Group 24">
<circle id="Ellipse 8" cx="82.142" cy="81.4213" r="81.1595" fill="#FD692C"/>
<path id="Vector 77" d="M19.0421 69.432C32.9455 66.6129 47.1037 64.1756 60.7284 60.1684" stroke="black" stroke-width="4.61" stroke-linecap="round"/>
<path id="Vector 78" d="M76.1677 55.5366C96.9773 50.9378 117.802 45.6234 137.925 38.5533" stroke="black" stroke-width="4.61" stroke-linecap="round"/>
<path id="Vector 81" d="M68.448 74.9901C68.448 87.3187 68.448 99.6473 68.448 111.976C68.448 115.779 77.1968 110.308 78.3292 109.883" stroke="black" stroke-width="4.61" stroke-linecap="round"/>
<path id="Vector 82" d="M78.0835 134.414C78.0835 135.254 78.0112 137.71 78.3062 136.924C79.0235 135.011 78.6474 132.473 80.1887 130.932C81.0533 130.067 83.1077 128.148 84.4397 129.11C86.5828 130.658 87.283 134.206 87.9214 136.6" stroke="black" stroke-width="4.61" stroke-linecap="round"/>
<path id="Vector 83" d="M46.4112 17.5449C45.4101 22.2168 43.2448 26.5308 42.1159 31.1091C41.7226 32.7044 44.8228 29.2216 46.0043 28.0798C46.6954 27.412 52.6315 20.0057 52.8769 24.3722C52.9613 25.8756 51.5714 30.0271 52.4247 31.29C52.6405 31.6094 53.2384 31.3825 53.5777 31.1995C55.2098 30.3193 60.444 25.8059 61.1058 25.2539C65.9579 21.2067 70.6519 16.8623 75.7099 13.0687" stroke="black" stroke-width="4.61" stroke-linecap="round"/>
<path id="Vector 87" d="M34.9408 71.4025C35.1254 75.6473 36.1407 79.8286 36.8016 84.0148" stroke="black" stroke-width="4.61" stroke-linecap="round"/>
<path id="Vector 88" d="M109.994 54.6551C110.051 57.5372 109.917 61.3248 111.234 63.9592" stroke="black" stroke-width="4.61" stroke-linecap="round"/>
<path id="Vector 89" d="M35.7208 89.9142C36.8792 88.822 38.1125 87.6962 39.591 87.0626" stroke="black" stroke-width="4.61" stroke-linecap="round"/>
<path id="Vector 90" d="M108.642 69.545C107.845 70.3428 110.215 69.3645 110.329 69.33C111.581 68.9514 112.854 68.5376 114.142 68.3229" stroke="black" stroke-width="4.61" stroke-linecap="round"/>
</g>
</svg>
