<svg width="324" height="306" viewBox="0 0 324 306" fill="none" xmlns="http://www.w3.org/2000/svg">
<circle cx="192.281" cy="174.383" r="130.858" fill="#00BC70" stroke="#002F0C" stroke-width="1.20303"/>
<path d="M3.07397 78.7911C17.6395 81.8397 31.419 87.2662 45.7069 91.3153C79.3798 100.858 119.263 105.181 150.708 86.0652C159.217 80.8922 176.083 62.2724 162.599 52.4776C155.535 47.3457 143.179 50.9211 137.804 56.7789C128.812 66.5774 128.016 82.7416 131.542 94.9207C136.722 112.815 154.964 118.248 171.961 117.502C235.898 114.697 271.976 54.3713 295.685 2.50732" stroke="#002F0C" stroke-width="4.61" stroke-linecap="round"/>
<path d="M85.9901 150.889C91.0797 146.242 101.508 145.172 107.988 145.655C117.142 146.338 124.623 151.02 131.731 156.351" stroke="#002F0C" stroke-width="4.61" stroke-linecap="round"/>
<path d="M269.635 121.533C257.778 121.533 245.996 122.687 236.297 130.446C232.046 133.847 224.332 139.335 222.529 144.745" stroke="#002F0C" stroke-width="4.61" stroke-linecap="round"/>
<path d="M176.106 157.716C173.282 162.8 171.754 168.56 169.393 173.873C168.259 176.423 168.336 178.187 170.493 180.283C175.332 184.984 179.345 185.706 185.664 185.706" stroke="#002F0C" stroke-width="4.61" stroke-linecap="round"/>
<circle cx="273.337" cy="170.264" r="27.2548" fill="#00AB5F"/>
<circle cx="95.9524" cy="197.519" r="27.2548" fill="#00AB5F"/>
<path d="M99.6439 198.678C100.998 200.332 104.376 200.882 106.243 201.408C111.645 202.93 117.167 203.94 122.704 204.822C134.214 206.655 145.87 207.497 157.521 207.553C177.812 207.65 197.634 205.292 216.385 197.009C233.167 189.596 248.521 178.303 262.202 166.212C268.121 160.979 273.353 155.412 276.462 148.158" stroke="#002F0C" stroke-width="4.61" stroke-linecap="round"/>
<path d="M141.832 207.059C142.893 219.444 150.546 232.394 158.87 241.21C171.409 254.49 188.083 257.729 204.157 248.198C222.411 237.372 230.953 214.255 236.777 194.952C238.028 190.806 239.355 187.145 239.355 182.846" stroke="#002F0C" stroke-width="4.61" stroke-linecap="round"/>
<path d="M195.183 268.839C190.765 270.198 187.656 280.505 193.887 280.505" stroke="black" stroke-width="3" stroke-linecap="round"/>
</svg>
